<?xml version="1.0" encoding="utf-8"?>
<!-- Generator: Adobe Illustrator 28.4.1, SVG Export Plug-In . SVG Version: 6.00 Build 0)  -->
<svg version="1.0" id="katman_1" xmlns="http://www.w3.org/2000/svg" xmlns:xlink="http://www.w3.org/1999/xlink" x="0px" y="0px"
	 viewBox="0 0 40 40.2" style="enable-background:new 0 0 40 40.2;" xml:space="preserve">
<path d="M12.2,17.83L9.44,37.28c-0.1,0.59-0.59,0.99-1.18,0.89c-0.3,0-0.59-0.3-0.79-0.59L0.55,23.95c-0.2-0.39-0.3-0.89-0.3-1.28
	l0.3-18.66c0-0.39,0.39-0.79,0.79-0.79c0.2,0,0.49,0.1,0.59,0.3l9.48,11.55C12.1,15.86,12.4,16.84,12.2,17.83z M11.9,14.37
	c0.69,0.79,1.68,1.18,2.76,1.09l23.4-3.95c0.39-0.1,0.69-0.49,0.59-0.89c0-0.2-0.2-0.39-0.3-0.49L24.44,0.55
	c-0.39-0.2-0.79-0.3-1.18-0.3L3.02,1.15c-0.39,0-0.69,0.2-0.79,0.49c-0.1,0.3-0.1,0.69,0.1,0.99L11.9,14.37z M39.55,12.6
	c-0.2-0.3-0.59-0.39-0.89-0.3l-22.9,3.75c-1.48,0.3-2.67,1.48-2.86,2.96l-2.76,19.25c-0.1,0.79,0.49,1.58,1.28,1.68
	c0.2,0,0.49,0,0.69-0.1l18.95-6.81c0.39-0.1,0.69-0.49,0.89-0.89l7.5-18.66C39.84,13.19,39.74,12.89,39.55,12.6z"/>
</svg>
